<svg xmlns="http://www.w3.org/2000/svg" height="300px" width="280px" version="1.1">
    <style>
        :root {
        /*--primary-color: #50fa7b;
        --secondary-color: #6f42c1;*/
        --primary-color: #8be9fd;
        --secondary-color: #6f42c1;
        }
    </style>
    <g id="logo-group">
        <g id="logo-center">
            <g id="title"
               transform="translate(-350 0)">
                <g xmlns="http://www.w3.org/2000/svg"
                   transform="translate(350,290) scale(0.14 -0.14)"
                >
                    <path d="M945 1989 c-11 -6 -224 -214 -472 -462 l-453 -452 70 -26 69 -27 78 22 78 22 3 57 c4 68 17 73 78 27 48 -36 68 -37 231 -5 71 13 171 29 223 35 92 11 96 12 133 50 37 39 37 40 37 125 0 96 8 107 60 85 36 -15 118 -100 163 -171 l34 -54 117 -23 c142 -27 312 -78 462 -138 62 -24 115 -44 118 -44 32 0 -59 100 -456 498 -263 263 -477 470 -495 478 -38 17 -51 17 -78 3z"
                          fill="var(--secondary-color)"
                    />
                    <path d="M145 878 l-36 -42 403 -404 c237 -237 417 -410 436 -418 26 -12 41 -13 65 -5 22 7 167 146 444 423 l413 413 -140 -9 c-129 -8 -140 -10 -146 -30 -11 -37 -58 -106 -77 -112 -24 -8 -51 18 -84 78 -16 29 -35 50 -47 53 -12 2 -77 7 -146 10 -69 3 -190 14 -270 24 -140 17 -146 17 -175 -1 -49 -30 -95 -24 -145 20 -41 35 -48 37 -112 37 l-67 0 -55 -54 c-61 -60 -82 -63 -78 -9 4 48 -24 68 -94 68 -49 0 -55 -3 -89 -42z"
                          fill="var(--primary-color)"
                    />
                </g>
            </g>
        </g>
    </g>
</svg>