<svg xmlns="http://www.w3.org/2000/svg" height="470px" width="420px" version="1.1">
    <style>
        :root {
        /*--primary-color: #50fa7b;
        --secondary-color: #6f42c1;*/
        --primary-color: #8be9fd;
        --secondary-color: #6f42c1;
        }
    </style>
    <g id="logo-group">
        <g id="logo-center">
            <g id="title"
               transform="translate(-300 0)">
                <g transform="translate(350,285) scale(0.14 -0.14)">
                    <path d="M945 1989 c-11 -6 -224 -214 -472 -462 l-453 -452 70 -26 69 -27 78 22 78 22 3 57 c4 68 17 73 78 27 48 -36 68 -37 231 -5 71 13 171 29 223 35 92 11 96 12 133 50 37 39 37 40 37 125 0 96 8 107 60 85 36 -15 118 -100 163 -171 l34 -54 117 -23 c142 -27 312 -78 462 -138 62 -24 115 -44 118 -44 32 0 -59 100 -456 498 -263 263 -477 470 -495 478 -38 17 -51 17 -78 3z"
                          fill="var(--secondary-color)"
                    />
                    <path d="M145 878 l-36 -42 403 -404 c237 -237 417 -410 436 -418 26 -12 41 -13 65 -5 22 7 167 146 444 423 l413 413 -140 -9 c-129 -8 -140 -10 -146 -30 -11 -37 -58 -106 -77 -112 -24 -8 -51 18 -84 78 -16 29 -35 50 -47 53 -12 2 -77 7 -146 10 -69 3 -190 14 -270 24 -140 17 -146 17 -175 -1 -49 -30 -95 -24 -145 20 -41 35 -48 37 -112 37 l-67 0 -55 -54 c-61 -60 -82 -63 -78 -9 4 48 -24 68 -94 68 -49 0 -55 -3 -89 -42z"
                          fill="var(--primary-color)"
                    />
                </g>

                <g transform="translate(0, 75)">
                    <g aria-label="F" transform="translate(60 0) scale(3)">
                        <path d="M81.53052,128.08252h11.30469v-21.74609h25.63428v-10.729H81.53052V128.08252z M81.53052,71.91748v10.729 h36.93896v-10.729H81.53052z"
                              fill="var(--primary-color)"
                        />
                    </g>
                    <g aria-label="P" transform="translate(185 0) scale(3)">
                        <path d="M115.22217,77.20288c-3.39844-3.50684-8.36035-5.28516-14.75391-5.28516H80.09033v56.16455h11.30469 V82.64673h8.4248c2.78711,0,5.01855,0.66211,6.44434,1.92236c1.41211,1.23145,2.125,3.11084,2.125,5.56592 c0,2.37646-0.69141,4.21973-2.05273,5.47998c-1.59863,1.47607-4.12598,2.2251-7.52441,2.2251h-1.89874v10.72852h2.47491 c2.92285,0,5.62305-0.35254,8.01367-1.04395c2.5498-0.7417,4.75977-1.87207,6.58203-3.36279 c1.92188-1.57666,3.40527-3.5498,4.40625-5.86816c1.00879-2.34033,1.51953-5.0332,1.51953-8.01465 C119.90967,84.89331,118.28955,80.37134,115.22217,77.20288z"
                              fill="var(--primary-color)"
                        />
                    </g>
                    <g aria-label="M" transform="translate(330 0) scale(3)">
                        <path d="M116.38086,95.7229l-12.80273,22.0625H96.4209L83.69043,95.84546v32.23682H72.31348V71.91772h10.3252 l17.39746,30.60254l17.39648-30.60254h10.25391v56.16455h-11.30566V95.7229z"
                              fill="var(--primary-color)"
                        />
                    </g>
                </g>
            </g>
        </g>
    </g>
</svg>