<svg xmlns="http://www.w3.org/2000/svg" height="750px" width="2400px" version="1.1">
<style>
    :root {
    /*--primary-color: #50fa7b;
    --secondary-color: #6f42c1;*/
    --primary-color: #8be9fd;
    --secondary-color: #6f42c1;
    }
</style>
    <g id="logo-group">
        <g id="logo-center">
            <g id="title" transform="translate(-230 0)">
                <g xmlns="http://www.w3.org/2000/svg" transform="translate(1225,290) scale(0.14 -0.14)">
                    <path d="M945 1989 c-11 -6 -224 -214 -472 -462 l-453 -452 70 -26 69 -27 78 22 78 22 3 57 c4 68 17 73 78 27 48 -36 68 -37 231 -5 71 13 171 29 223 35 92 11 96 12 133 50 37 39 37 40 37 125 0 96 8 107 60 85 36 -15 118 -100 163 -171 l34 -54 117 -23 c142 -27 312 -78 462 -138 62 -24 115 -44 118 -44 32 0 -59 100 -456 498 -263 263 -477 470 -495 478 -38 17 -51 17 -78 3z" fill="var(--secondary-color)" />
                    <path d="M145 878 l-36 -42 403 -404 c237 -237 417 -410 436 -418 26 -12 41 -13 65 -5 22 7 167 146 444 423 l413 413 -140 -9 c-129 -8 -140 -10 -146 -30 -11 -37 -58 -106 -77 -112 -24 -8 -51 18 -84 78 -16 29 -35 50 -47 53 -12 2 -77 7 -146 10 -69 3 -190 14 -270 24 -140 17 -146 17 -175 -1 -49 -30 -95 -24 -145 20 -41 35 -48 37 -112 37 l-67 0 -55 -54 c-61 -60 -82 -63 -78 -9 4 48 -24 68 -94 68 -49 0 -55 -3 -89 -42z" fill="var(--primary-color)" />
                </g>

                <g transform="translate(900 100)">
                    <g aria-label="F" transform="translate(0 0) scale(3)">
                        <path d="M81.53052,128.08252h11.30469v-21.74609h25.63428v-10.729H81.53052V128.08252z M81.53052,71.91748v10.729 h36.93896v-10.729H81.53052z" fill="var(--primary-color)">
                        </path>
                    </g>
                    <g aria-label="I" transform="translate(80 0) scale(3)">
                        <path d="M94.34741,75.51758l11.30518-3.6001v56.16504H94.34741V75.51758z" fill="var(--primary-color)"></path>
                    </g>
                    <g aria-label="S" transform="translate(160 0) scale(3)">
                        <path d="M80.97266,119.83057l-1.51953-1.62793l7.43848-8.89941l1.92188,2.41211 c1.50488,1.88672,3.4707,3.43457,5.6748,4.47168c2.07324,0.979,4.3125,1.49023,6.47266,1.49023 c2.5498,0,4.72363-0.56152,6.12109-1.57666c1.25977-0.91455,1.87207-2.13867,1.87207-3.75146 c0-1.75732-0.54004-2.84424-1.91504-3.87402c-1.58496-1.18115-4.14844-2.146-7.12207-3.26904 c-0.25195-0.09375-0.51074-0.19434-0.77734-0.29541c-4.08301-1.51904-8.00684-3.08154-11.1543-5.5874 c-1.82861-1.45459-3.18213-3.06055-4.14014-4.90381c-1.06543-2.04492-1.60547-4.37061-1.60547-6.9126 c0-4.42822,1.91553-8.52539,5.38623-11.53564c3.37012-2.91602,7.89844-4.52148,12.75977-4.52148 c6.27832,0,12.40625,2.26074,17.71289,6.53076l1.91602,1.54834l-6.90625,8.98633l-2.01563-1.65625 c-3.5498-2.93066-7.45313-4.6084-10.70703-4.6084c-3.02441,0-6.56738,1.31055-6.625,5.00439 c-0.02148,1.64893,0.77051,2.54883,1.97266,3.3916c1.72168,1.20947,4.45703,2.25342,7.35254,3.3623l0.02832,0.00732 c0.4541,0.18018,0.90723,0.36035,1.36133,0.53271c4.09668,1.60596,7.9707,3.11816,10.9082,5.5376 c3.4707,2.86572,5.16309,6.63867,5.16309,11.54248c0,2.65723-0.56836,5.12695-1.69238,7.34424 c-1.05859,2.07422-2.57031,3.88184-4.51465,5.37207c-3.54199,2.70703-8.31641,4.20508-13.4502,4.20508 C93.2998,128.55029,86.229,125.45459,80.97266,119.83057z" fill="var(--primary-color)"></path>
                    </g>
                    <g aria-label="H" transform="translate(300 0) scale(3)">
                        <path d="M110.83716,106.62451H89.16284v21.45801H77.85815V71.91748h11.30469v23.97803h21.67432V71.91748h11.30469 v56.16504h-11.30469V106.62451z" fill="var(--primary-color)"></path>
                    </g>
                </g>

                <g transform="translate(60 300)">
                    <g aria-label="P" transform="translate(0 0) scale(3)">
                        <path d="M115.22217,77.20288c-3.39844-3.50684-8.36035-5.28516-14.75391-5.28516H80.09033v56.16455h11.30469 V82.64673h8.4248c2.78711,0,5.01855,0.66211,6.44434,1.92236c1.41211,1.23145,2.125,3.11084,2.125,5.56592 c0,2.37646-0.69141,4.21973-2.05273,5.47998c-1.59863,1.47607-4.12598,2.2251-7.52441,2.2251h-1.89874v10.72852h2.47491 c2.92285,0,5.62305-0.35254,8.01367-1.04395c2.5498-0.7417,4.75977-1.87207,6.58203-3.36279 c1.92188-1.57666,3.40527-3.5498,4.40625-5.86816c1.00879-2.34033,1.51953-5.0332,1.51953-8.01465 C119.90967,84.89331,118.28955,80.37134,115.22217,77.20288z" fill="var(--primary-color)" />
                    </g>
                    <g aria-label="A" transform="translate(130 0) scale(3)">
                        <polygon points="104.82788,71.91748 95.08569,71.91748 73.80786,128.08252 85.77515,128.08252 99.93921,89.14844 114.22534,128.08252 126.19214,128.08252 " fill="var(--primary-color)"></polygon>
                        <polygon class="c3" points="100.03819,128.08252 91.09854,114.24284 108.90146,114.24284" fill="var(--secondary-color)"></polygon>
                    </g>
                    <g aria-label="C" transform="translate(280 0) scale(3)">
                        <path d="M91.27637,126.36865c-3.40576-1.44043-6.46631-3.50684-9.09424-6.13477 c-2.62842-2.62793-4.6875-5.68848-6.13477-9.09473c-1.49072-3.52783-2.25391-7.27979-2.25391-11.13916 s0.75586-7.61084,2.25391-11.13916c1.43994-3.40625,3.50635-6.46631,6.13477-9.09473 c2.62793-2.62793,5.68848-4.6875,9.09424-6.13477c3.52881-1.49756,7.27979-2.25391,11.13916-2.25391 c9.5625,0,18.45508,4.74561,23.79102,12.70215l-9.38965,6.29346c-3.22559-4.81738-8.61133-7.69043-14.40137-7.69043 c-4.62207,0-8.97168,1.80029-12.24805,5.06934S85.09814,95.37744,85.09814,100c0,4.62305,1.80029,8.97217,5.06934,12.24854 c3.26855,3.26953,7.61816,5.06836,12.24805,5.06836c5.76074,0,11.13281-2.85742,14.36523-7.63867l9.36816,6.32813 c-5.33594,7.90039-14.20703,12.61621-23.7334,12.61621C98.55615,128.62256,94.80518,127.8667,91.27637,126.36865z" fill="var(--primary-color)"></path>
                    </g>
                    <g aria-label="K" transform="translate(430 0) scale(3)">
                        <polygon points="108.10376,71.91748 88.48218,95.62207 88.48218,71.91748 77.17749,71.91748 77.17749,128.08252 88.48218,128.08252 88.48218,112.30518 122.80005,71.91748 " fill="var(--primary-color)"></polygon>
                        <polygon class="c3" points="112.71143,114.24286 98.67279,114.24286 108.73071,128.08252 122.82251,128.08252 " fill="var(--secondary-color)"></polygon>
                    </g>
                    <g aria-label="A" transform="translate(600 0) scale(3)">
                        <polygon points="104.82788,71.91748 95.08569,71.91748 73.80786,128.08252 85.77515,128.08252 99.93921,89.14844 114.22534,128.08252 126.19214,128.08252 " fill="var(--primary-color)"></polygon>
                        <polygon class="c3" points="100.03819,128.08252 91.09854,114.24284 108.90146,114.24284 " fill="var(--secondary-color)"></polygon>
                    </g>
                    <g aria-label="G" transform="translate(750 0) scale(3)">
                        <path d="M88.90356,126.25342c-3.39111-1.43262-6.43701-3.49219-9.05811-6.10547 c-2.60693-2.61426-4.65869-5.66016-6.09912-9.05859c-1.4834-3.51416-2.23926-7.24414-2.23926-11.08936 s0.75586-7.5752,2.23926-11.09619c1.43311-3.3916,3.49219-6.4375,6.10645-9.05811c2.61377-2.61426,5.65967-4.66602,9.05811-6.10645 c3.51465-1.4834,7.24414-2.23193,11.08887-2.23193c4.55859,0,9.10156,1.10156,13.12012,3.19678 c3.8877,2.02344,7.31543,4.96143,9.90039,8.51123l-9.12988,6.66797c-1.5625-2.146-3.63672-3.92432-5.98438-5.14111 c-2.45508-1.2749-5.11914-1.92285-7.91309-1.92285c-4.59375,0-8.90723,1.78564-12.15479,5.0332s-5.0332,7.56055-5.0332,12.15479 c0,4.59375,1.78564,8.90723,5.0332,12.1543c3.24756,3.24805,7.56104,5.0332,12.15479,5.0332s8.90723-1.78516,12.1543-5.0332 c1.86523-1.86523,3.24805-4.08252,4.08984-6.50195h-16.2373V94.35498h28.49316v5.65234c0,3.84521-0.75586,7.5752-2.23926,11.0957 c-1.43359,3.3916-3.49219,6.4375-6.10645,9.05859c-2.61328,2.62109-5.65918,4.66602-9.05859,6.10645 c-3.51367,1.46875-7.24316,2.22461-11.08887,2.22461C96.15503,128.49268,92.42554,127.73682,88.90356,126.25342z" fill="var(--primary-color)"></path>
                    </g>
                    <g aria-label="E" transform="translate(900 0) scale(3)">
                        <path d="M81.8186,128.08252h36.36279v-10.51367H81.8186V128.08252z M81.8186,105.47217h36.36279v-10.729H81.8186 V105.47217z M81.8186,71.91748v10.729h36.36279v-10.729H81.8186z" fill="var(--primary-color)"></path>
                    </g>
                </g>

                <g transform="translate(1200 300)">
                    <g aria-label="M" transform="translate(25 0) scale(3)">
                        <path d="M116.38086,95.7229l-12.80273,22.0625H96.4209L83.69043,95.84546v32.23682H72.31348V71.91772h10.3252 l17.39746,30.60254l17.39648-30.60254h10.25391v56.16455h-11.30566V95.7229z" fill="var(--primary-color)"></path>
                    </g>
                    <g aria-label="A" transform="translate(200 0) scale(3)">
                        <polygon points="104.82788,71.91748 95.08569,71.91748 73.80786,128.08252 85.77515,128.08252 99.93921,89.14844 114.22534,128.08252 126.19214,128.08252 " fill="var(--primary-color)"></polygon>
                        <polygon class="c3" points="100.03819,128.08252 91.09854,114.24284 108.90146,114.24284 " fill="var(--secondary-color)"></polygon>
                    </g>
                    <g aria-label="N" transform="translate(360 0) scale(3)">
                        <path d="M88.08252,93.00806v35.07422H76.77783V71.91772h10.01563l25.12305,35.39795V71.91772h11.30566v56.16455 h-10.23242L88.08252,93.00806z" fill="var(--primary-color)"></path>
                    </g>
                    <g aria-label="A" transform="translate(520 0) scale(3)">
                        <polygon points="104.82788,71.91748 95.08569,71.91748 73.80786,128.08252 85.77515,128.08252 99.93921,89.14844 114.22534,128.08252 126.19214,128.08252 " fill="var(--primary-color)"></polygon>
                        <polygon class="c3" points="100.03819,128.08252 91.09854,114.24284 108.90146,114.24284 " fill="var(--secondary-color)"></polygon>
                    </g>
                    <g aria-label="G" transform="translate(700 0) scale(3)">
                        <path d="M88.90356,126.25342c-3.39111-1.43262-6.43701-3.49219-9.05811-6.10547 c-2.60693-2.61426-4.65869-5.66016-6.09912-9.05859c-1.4834-3.51416-2.23926-7.24414-2.23926-11.08936 s0.75586-7.5752,2.23926-11.09619c1.43311-3.3916,3.49219-6.4375,6.10645-9.05811c2.61377-2.61426,5.65967-4.66602,9.05811-6.10645 c3.51465-1.4834,7.24414-2.23193,11.08887-2.23193c4.55859,0,9.10156,1.10156,13.12012,3.19678 c3.8877,2.02344,7.31543,4.96143,9.90039,8.51123l-9.12988,6.66797c-1.5625-2.146-3.63672-3.92432-5.98438-5.14111 c-2.45508-1.2749-5.11914-1.92285-7.91309-1.92285c-4.59375,0-8.90723,1.78564-12.15479,5.0332s-5.0332,7.56055-5.0332,12.15479 c0,4.59375,1.78564,8.90723,5.0332,12.1543c3.24756,3.24805,7.56104,5.0332,12.15479,5.0332s8.90723-1.78516,12.1543-5.0332 c1.86523-1.86523,3.24805-4.08252,4.08984-6.50195h-16.2373V94.35498h28.49316v5.65234c0,3.84521-0.75586,7.5752-2.23926,11.0957 c-1.43359,3.3916-3.49219,6.4375-6.10645,9.05859c-2.61328,2.62109-5.65918,4.66602-9.05859,6.10645 c-3.51367,1.46875-7.24316,2.22461-11.08887,2.22461C96.15503,128.49268,92.42554,127.73682,88.90356,126.25342z" fill="var(--primary-color)"></path>
                    </g>
                    <g aria-label="E" transform="translate(850 0) scale(3)">
                        <path d="M81.8186,128.08252h36.36279v-10.51367H81.8186V128.08252z M81.8186,105.47217h36.36279v-10.729H81.8186 V105.47217z M81.8186,71.91748v10.729h36.36279v-10.729H81.8186z" fill="var(--primary-color)"></path>
                    </g>
                    <g aria-label="R" transform="translate(980 0) scale(3)">
                        <path d="M121.90405,128.08252h-13.65918l-13.37109-19.27637V97.83984h2.16016 c3.40527,0,5.9541-0.74902,7.56738-2.23242c1.38281-1.27441,2.08105-3.11084,2.08105-5.47266 c0-2.4624-0.71973-4.33447-2.13867-5.55859c-1.4541-1.26025-3.75879-1.92969-6.64648-1.92969h-8.49609v45.43604H78.09595V71.91748 h20.66553c3.16113,0,6.0127,0.45361,8.48926,1.34619c2.44141,0.88574,4.5293,2.21094,6.20703,3.93164 c3.10352,3.18994,4.74512,7.71191,4.74512,13.0835c0,4.81738-1.33203,8.79932-3.95996,11.83789 c-1.8291,2.10986-4.24121,3.72266-7.2002,4.81006L121.90405,128.08252z" fill="var(--primary-color)"></path>
                    </g>
                </g>
            </g>
        </g>
    </g>
</svg>